<?xml version="1.0" standalone="no"?>
<!DOCTYPE svg PUBLIC "-//W3C//DTD SVG 20010904//EN"
 "http://www.w3.org/TR/2001/REC-SVG-20010904/DTD/svg10.dtd">
<svg version="1.0" xmlns="http://www.w3.org/2000/svg"
 width="300.000000pt" height="300.000000pt" viewBox="0 0 300.000000 300.000000"
 preserveAspectRatio="xMidYMid meet">
<metadata>
Created by potrace 1.11, written by Peter Selinger 2001-2013
</metadata>
<g transform="translate(0.000000,300.000000) scale(0.100000,-0.100000)"
fill="#000000" stroke="none">
<path d="M370 2888 c0 -195 39 -388 105 -519 44 -86 143 -192 226 -242 124
-73 359 -127 555 -127 101 0 114 13 114 113 0 284 -81 537 -214 670 -140 140
-378 217 -673 217 l-113 0 0 -112z"/>
<path d="M2155 2984 c-196 -29 -379 -113 -466 -211 -125 -143 -199 -382 -199
-645 0 -133 1 -133 167 -124 438 22 673 169 773 483 33 103 60 284 60 402 0
107 -6 111 -141 110 -57 -1 -144 -7 -194 -15z"/>
<path d="M410 2004 c-32 -13 -40 -38 -40 -124 0 -184 36 -363 102 -500 32 -67
56 -101 117 -160 139 -138 315 -198 627 -216 107 -7 112 -6 134 16 22 22 23
27 17 149 -3 69 -15 173 -27 231 -84 409 -309 574 -825 604 -49 3 -97 3 -105
0z"/>
<path d="M2257 1999 c-324 -29 -535 -137 -647 -332 -69 -118 -120 -351 -120
-541 0 -91 1 -96 25 -112 22 -14 42 -16 135 -10 469 28 706 188 794 537 29
112 46 245 46 351 0 71 -2 78 -26 97 -29 23 -46 24 -207 10z"/>
<path d="M395 988 c-23 -18 -25 -25 -25 -106 0 -352 119 -627 324 -751 120
-72 300 -117 511 -128 116 -6 123 -5 144 16 18 18 21 33 21 98 0 258 -75 510
-190 645 -123 142 -349 223 -677 241 -72 4 -86 2 -108 -15z"/>
<path d="M2305 999 c-265 -17 -452 -79 -578 -189 -145 -128 -237 -393 -237
-682 0 -133 1 -133 167 -124 438 22 673 169 773 483 33 103 60 284 60 402 0
115 -12 122 -185 110z"/>
</g>
</svg>
